# xmcd
#
# Track frame offsets:
#  150
#  20000
#  38519
#  63720
#  88431
#  111901
#  145051
#  164865
#  190300
#  220991
#  244329
#  269407
#  292957
#  311460
#  330902
#
# Disc length: 4724 seconds
#
# Revision: 1
# Processed by: cddbd v1.5.1PL2 Copyright (c) Steve Scherf et al.
# Submitted via: Collectorz.com_Music_Collector 6.11
#
DISCID=e812720f
DTITLE=Studebaker John and The Hawks - Self - Made Man
DYEAR=2006
DGENRE=Blues
TTITLE0=Ride, Ride, Ride
TTITLE1=So Happy Together
TTITLE2=Back In Your Town
TTITLE3=Self - Made Man
TTITLE4=Fast In The Slow Lane
TTITLE5=The Hard Way
TTITLE6=All That I Know
TTITLE7=All Aboard (The Streamliner)
TTITLE8=Hoo Doo You
TTITLE9=Walkin' In The Rain
TTITLE10=Where Are You
TTITLE11=Rockin' Like Crazy
TTITLE12=Hey Little Mama
TTITLE13=Highway King
TTITLE14=Ride With Me Baby
EXTD=
EXTT0=
EXTT1=
EXTT2=
EXTT3=
EXTT4=
EXTT5=
EXTT6=
EXTT7=
EXTT8=
EXTT9=
EXTT10=
EXTT11=
EXTT12=
EXTT13=
EXTT14=
PLAYORDER=
